HIERARCHY
ROOT Hips
{
	OFFSET 0.000000 0.000000 0.000000
	CHANNELS 6 Xposition Yposition Zposition Zrotation Yrotation Xrotation 
	JOINT LHipJoint
	{
		OFFSET 0.000000 0.000000 0.000000
		CHANNELS 3 Zrotation Yrotation Xrotation
		JOINT LeftUpLeg
		{
			OFFSET 1.363060 -1.794630 0.839290
			CHANNELS 3 Zrotation Yrotation Xrotation
			JOINT LeftLeg
			{
				OFFSET 2.448110 -6.726130 0.000000
				CHANNELS 3 Zrotation Yrotation Xrotation
				JOINT LeftFoot
				{
					OFFSET 2.562200 -7.039590 0.000000
					CHANNELS 3 Zrotation Yrotation Xrotation
					JOINT LeftToeBase
					{
						OFFSET 0.157640 -0.433110 2.322550
						CHANNELS 3 Zrotation Yrotation Xrotation
						End Site
						{
							OFFSET 0.000000 0.000000 0.000000
						}
					}
				}
			}
		}
	}
	JOINT RHipJoint
	{
		OFFSET 0.000000 0.000000 0.000000
		CHANNELS 3 Zrotation Yrotation Xrotation
		JOINT RightUpLeg
		{
			OFFSET -1.305520 -1.794630 0.839290
			CHANNELS 3 Zrotation Yrotation Xrotation
			JOINT RightLeg
			{
				OFFSET -2.542530 -6.985550 0.000000
				CHANNELS 3 Zrotation Yrotation Xrotation
				JOINT RightFoot
				{
					OFFSET -2.568260 -7.056230 0.000000
					CHANNELS 3 Zrotation Yrotation Xrotation
					JOINT RightToeBase
					{
						OFFSET -0.164730 -0.452590 2.363150
						CHANNELS 3 Zrotation Yrotation Xrotation
						End Site
						{
							OFFSET 0.000000 0.000000 0.000000
						}
					}
				}
			}
		}
	}
	JOINT LowerBack
	{
		OFFSET 0.000000 0.000000 0.000000
		CHANNELS 3 Zrotation Yrotation Xrotation
		JOINT Spine
		{
			OFFSET 0.028270 2.035590 -0.193380
			CHANNELS 3 Zrotation Yrotation Xrotation
			JOINT Spine1
			{
				OFFSET 0.056720 2.048850 -0.042750
				CHANNELS 3 Zrotation Yrotation Xrotation
				JOINT Neck
				{
					OFFSET 0.000000 0.000000 0.000000
					CHANNELS 3 Zrotation Yrotation Xrotation
					JOINT Neck1
					{
						OFFSET -0.054170 1.746240 0.172020
						CHANNELS 3 Zrotation Yrotation Xrotation
						JOINT Head
						{
							OFFSET 0.104070 1.761360 -0.123970
							CHANNELS 3 Zrotation Yrotation Xrotation
							End Site
							{
								OFFSET 0.000000 0.000000 0.000000
							}
						}
					}
				}
				JOINT LeftShoulder
				{
					OFFSET 0.000000 0.000000 0.000000
					CHANNELS 3 Zrotation Yrotation Xrotation
					JOINT LeftArm
					{
						OFFSET 3.362410 1.200890 -0.311210
						CHANNELS 3 Zrotation Yrotation Xrotation
						JOINT LeftForeArm
						{
							OFFSET 4.983000 -0.000000 -0.000000
							CHANNELS 3 Zrotation Yrotation Xrotation
							JOINT LeftHand
							{
								OFFSET 3.483560 -0.000000 -0.000000
								CHANNELS 3 Zrotation Yrotation Xrotation
								JOINT LeftFingerBase
								{
									OFFSET 0.000000 0.000000 0.000000
									CHANNELS 3 Zrotation Yrotation Xrotation
									JOINT LeftHandIndex1
									{
										OFFSET 0.715260 -0.000000 -0.000000
										CHANNELS 3 Zrotation Yrotation Xrotation
										End Site
										{
											OFFSET 0.000000 0.000000 0.000000
										}
									}
								}
								JOINT LThumb
								{
									OFFSET 0.000000 0.000000 0.000000
									CHANNELS 3 Zrotation Yrotation Xrotation
									End Site
									{
										OFFSET 0.000000 0.000000 0.000000
									}
								}
							}
						}
					}
				}
				JOINT RightShoulder
				{
					OFFSET 0.000000 0.000000 0.000000
					CHANNELS 3 Zrotation Yrotation Xrotation
					JOINT RightArm
					{
						OFFSET -3.136600 1.374050 -0.404650
						CHANNELS 3 Zrotation Yrotation Xrotation
						JOINT RightForeArm
						{
							OFFSET -5.241900 -0.000000 -0.000000
							CHANNELS 3 Zrotation Yrotation Xrotation
							JOINT RightHand
							{
								OFFSET -3.444170 -0.000000 -0.000000
								CHANNELS 3 Zrotation Yrotation Xrotation
								JOINT RightFingerBase
								{
									OFFSET 0.000000 0.000000 0.000000
									CHANNELS 3 Zrotation Yrotation Xrotation
									JOINT RightHandIndex1
									{
										OFFSET -0.622530 -0.000000 -0.000000
										CHANNELS 3 Zrotation Yrotation Xrotation
										End Site
										{
											OFFSET 0.000000 0.000000 0.000000
										}
									}
								}
								JOINT RThumb
								{
									OFFSET 0.000000 0.000000 0.000000
									CHANNELS 3 Zrotation Yrotation Xrotation
									End Site
									{
										OFFSET 0.000000 0.000000 0.000000
									}
								}
							}
						}
					}
				}
			}
		}
	}
}
MOTION
Frames: 12
Frame Time: 0.008333
-1.527751 18.291329 5.008250 -2.013465 -1.213585 5.836161 1.845621 4.072375 3.955659 -8.936893 -9.805354 -20.050841 2.151141 9.281734 29.231677 -0.563874 4.551041 -6.966854 9.231500 -16.954400 -56.887200 -3.106293 -3.868199 3.309567 21.969732 6.055868 -10.470335 -0.932638 -4.673819 17.232716 -0.333768 -2.587693 -14.515566 -0.497600 4.522300 -12.550900 2.786808 -1.383503 15.865187 0.563573 -1.463097 38.953880 -3.346914 -0.249373 -17.894898 -0.124433 -1.932545 -30.098339 3.453961 -2.425675 21.195437 0.277100 -0.665300 9.652100 5.888279 -4.651932 -1.070522 -101.433231 -26.210533 94.702403 152.408377 -35.209604 -109.685270 -2.219295 2.000850 -13.351209 46.969608 -48.249333 -40.947000 -7.125000 0.000000 0.000000 1.950500 -30.785500 -2.674900 -9.271407 6.044681 -1.155531 95.875438 17.133403 85.914608 -157.891974 25.232163 -113.845901 5.126706 2.322212 8.084220 -41.149392 -25.706752 25.569300 7.125000 0.000000 0.000000 -21.777900 -65.700400 11.121100 
-1.571497 18.300059 5.004033 -2.146302 -1.320597 5.874710 1.865574 4.070140 3.961117 -8.665209 -9.722671 -20.122499 2.150416 9.276219 29.210746 -0.614152 4.741191 -6.789651 9.225300 -16.950600 -56.866200 -3.100148 -3.882427 3.335086 22.244852 6.135984 -10.377603 -0.900034 -4.589850 16.986296 -0.300930 -2.690517 -14.355689 -0.492300 4.498500 -12.483500 2.613399 -1.328892 16.434683 0.750929 -1.466075 38.611553 -3.164204 -0.194309 -18.764294 -0.090403 -1.946076 -30.065793 3.200064 -2.395252 21.972389 0.235100 -0.663000 9.778500 5.840504 -4.640714 -1.106367 -101.620686 -25.422983 94.614354 152.398458 -35.282869 -109.652038 -2.239059 2.044225 -13.332852 48.252119 -49.121087 -42.599000 -7.125000 0.000000 0.000000 2.018400 -32.141800 -2.783900 -9.247319 6.157743 -0.924119 95.384107 16.112551 90.552945 -157.581251 26.040055 -113.330102 5.899993 1.654886 1.095865 -49.270053 -14.581391 20.957900 7.125000 0.000000 0.000000 -29.649700 -53.254000 6.468900 
-1.608866 18.317910 5.005602 -2.103024 -1.393232 5.895523 1.839883 4.083344 3.970361 -8.549338 -9.783372 -20.045325 2.124235 9.242093 29.077852 -0.663939 4.940738 -6.624334 9.180700 -16.922600 -56.712900 -3.133098 -3.882259 3.312598 22.364054 6.044000 -10.064416 -0.826547 -4.374359 16.395406 -0.233293 -2.956366 -14.116398 -0.519400 4.618800 -12.824500 2.794414 -1.399804 15.766510 0.291398 -1.425380 38.936237 -3.252520 -0.263449 -17.990784 -0.028119 -1.934232 -29.936831 3.429633 -2.461753 21.479087 0.266300 -0.674500 9.692000 5.897197 -4.663666 -1.093843 -101.350900 -25.947327 94.586134 152.312980 -35.335722 -109.602936 -2.262713 2.053831 -13.464067 49.408057 -49.583209 -43.962900 -7.125000 0.000000 0.000000 2.240400 -33.071100 -3.101300 -9.165551 6.060003 -1.056077 95.489224 16.945180 88.717984 -157.383510 26.113561 -113.355170 5.667493 1.732403 2.966916 -47.040764 -17.137113 22.238500 7.125000 0.000000 0.000000 -27.891900 -56.162500 8.079500 
-1.640155 18.341842 5.009820 -2.032072 -1.373981 5.864768 1.826150 4.101092 3.979489 -8.504545 -9.861445 -19.869475 2.085359 9.175463 28.858150 -0.720127 5.143096 -6.327333 9.174900 -16.918900 -56.692900 -3.150174 -3.886605 3.288021 22.425897 5.841054 -9.556904 -0.720762 -4.059106 15.524072 -0.149299 -3.307478 -13.860208 -0.539500 4.706300 -13.072700 2.868132 -1.458106 15.582135 0.025379 -1.408429 38.989302 -3.336269 -0.309541 -17.792936 -0.127246 -1.991688 -29.829594 3.774290 -2.589119 21.272839 0.345800 -0.704500 9.645300 5.953911 -4.673445 -1.068289 -101.202819 -26.091032 94.497259 152.334672 -35.285138 -109.631137 -2.244629 2.034116 -13.139672 48.685021 -48.931147 -42.964000 -7.125000 0.000000 0.000000 2.308200 -32.171200 -3.184300 -9.178042 6.002672 -1.172960 95.674077 17.360719 86.007528 -157.769686 25.419566 -113.762388 5.135000 2.359154 8.074566 -41.669970 -26.075530 26.261700 7.125000 0.000000 0.000000 -22.777300 -66.302200 11.968300 
-1.665559 18.368521 5.017176 -1.989924 -1.302045 5.852452 1.827373 4.112340 3.985579 -8.465451 -9.911884 -19.690538 2.039257 9.083482 28.576700 -0.776777 5.331512 -5.926136 9.220300 -16.947400 -56.849000 -3.151108 -3.901246 3.278682 22.474533 5.736949 -8.927243 -0.595010 -3.680572 14.469853 -0.064022 -3.724234 -13.716593 -0.499200 4.529900 -12.572300 2.819141 -1.503048 15.542563 -0.030617 -1.459930 38.957449 -3.289551 -0.342500 -17.831223 -0.077306 -1.965646 -29.863707 3.698063 -2.553195 21.360711 0.325800 -0.691800 9.668800 5.956119 -4.664849 -1.066943 -101.155820 -26.110019 94.330769 152.409226 -35.205893 -109.689712 -2.223406 2.020009 -12.902365 47.813971 -48.430093 -41.874400 -7.125000 0.000000 0.000000 2.216700 -31.327200 -3.047400 -9.161656 5.995019 -1.177047 95.669337 17.438544 85.970837 -157.753036 25.445853 -113.751522 5.147140 2.354808 7.874115 -41.888307 -25.912285 26.314700 7.125000 0.000000 0.000000 -23.132400 -66.161400 12.089100 
-1.684881 18.394611 5.026494 -1.934045 -1.188116 5.856233 1.834912 4.118598 3.986988 -8.454129 -9.960667 -19.517389 1.992780 8.983243 28.278647 -0.809027 5.412532 -5.519270 9.247900 -16.964600 -56.943700 -3.144121 -3.918114 3.270424 22.479336 5.668789 -8.230860 -0.459862 -3.261541 13.303282 0.035948 -4.256821 -13.639162 -0.442300 4.267300 -11.830000 2.718330 -1.554031 15.443437 0.002647 -1.558468 38.921491 -3.210946 -0.384460 -17.827035 0.084651 -1.907284 -30.053906 3.433879 -2.466482 21.614175 0.249900 -0.665900 9.757900 5.944028 -4.645720 -1.062807 -101.156159 -26.138044 94.348458 152.462906 -35.153759 -109.727469 -2.227174 2.008105 -13.016247 47.726694 -48.298777 -41.732000 -7.125000 0.000000 0.000000 2.251100 -31.169800 -3.092700 -9.168647 5.995563 -1.171605 95.670879 17.519955 86.133928 -157.843706 25.353670 -113.794882 5.132292 2.397596 7.724200 -41.829640 -26.106287 26.421900 7.125000 0.000000 0.000000 -23.081900 -66.393700 12.183800 
-1.699300 18.417269 5.034242 -1.866304 -1.062843 5.847213 1.838383 4.123132 3.990047 -8.446014 -10.125889 -19.307080 1.950515 8.891068 28.009802 -0.836565 5.488076 -5.203897 9.246400 -16.963700 -56.938500 -3.138845 -3.935105 3.263179 22.447838 5.607676 -7.519189 -0.331688 -2.838826 12.134515 0.132783 -4.776127 -13.584297 -0.374400 3.930200 -10.880400 2.644789 -1.562507 15.365487 0.065320 -1.607786 38.893764 -3.156620 -0.391676 -17.826683 0.118511 -1.918090 -30.152051 3.358935 -2.477822 21.623197 0.226900 -0.677800 9.767700 5.934840 -4.645292 -1.073523 -101.251583 -26.161783 94.541413 152.488717 -35.137360 -109.745310 -2.225008 1.988110 -13.102417 47.386687 -47.936567 -41.238900 -7.125000 0.000000 0.000000 2.296400 -30.692900 -3.148300 -9.170928 6.009921 -1.122224 95.624043 17.333293 87.664754 -157.815652 25.437204 -113.760169 5.127561 1.947960 5.656545 -41.142885 -21.344958 21.939700 7.125000 0.000000 0.000000 -20.703500 -60.044100 7.799300 
-1.707833 18.434335 5.041403 -1.854546 -0.904666 5.783538 1.848191 4.131858 3.992629 -8.390029 -10.443532 -19.029097 1.917026 8.819706 27.804857 -0.876112 5.635606 -5.010121 9.282200 -16.986000 -57.061200 -3.126689 -3.945575 3.252240 22.452963 5.458595 -6.859483 -0.227591 -2.469886 11.124545 0.210345 -5.178419 -13.526544 -0.322200 3.648300 -10.089200 2.644483 -1.573566 15.424127 0.224933 -1.656920 38.830840 -3.179140 -0.394520 -17.917912 0.076918 -1.949532 -30.124363 3.334415 -2.500684 21.530372 0.219300 -0.695400 9.728900 5.921379 -4.651467 -1.073096 -101.335316 -26.067988 94.924746 152.562411 -35.063204 -109.798836 -2.204178 1.928380 -13.564953 45.586357 -46.944485 -39.019000 -7.125000 0.000000 0.000000 2.021300 -28.978500 -2.748500 -9.193985 6.028631 -1.120623 95.798987 17.176334 87.553856 -157.814401 25.404649 -113.774445 5.126037 1.872533 5.879085 -40.721700 -20.936596 21.287300 7.125000 0.000000 0.000000 -20.001700 -59.382300 7.203500 
-1.711854 18.443457 5.046797 -1.936963 -0.722685 5.670576 1.874586 4.138870 3.988480 -8.266878 -10.692060 -18.787186 1.903974 8.779928 27.701513 -0.894112 5.689154 -4.826875 9.351300 -17.028600 -57.297300 -3.103176 -3.954931 3.239381 22.565594 5.115206 -6.378866 -0.158596 -2.204825 10.401501 0.271476 -5.429440 -13.346154 -0.318800 3.629300 -10.036000 2.655674 -1.590183 15.597804 0.566555 -1.752668 38.747973 -3.225547 -0.400123 -18.042420 0.056273 -1.960279 -30.231485 3.190954 -2.468277 21.707947 0.183800 -0.692000 9.779500 5.887815 -4.652073 -1.063845 -101.492204 -25.912308 94.591884 152.510586 -35.120272 -109.747781 -2.225632 2.020535 -12.859350 47.549148 -48.198308 -41.520500 -7.125000 0.000000 0.000000 2.225100 -31.011500 -3.054800 -9.252706 6.069115 -1.110655 96.063878 16.942438 87.330206 -157.898322 25.253093 -113.841017 5.100532 1.850509 6.126023 -40.089086 -20.922257 20.840500 7.125000 0.000000 0.000000 -19.096900 -59.189400 6.773600 
-1.715091 18.443653 5.048268 -2.086172 -0.578586 5.600726 1.919021 4.132073 3.975894 -8.098165 -10.788472 -18.705370 1.916020 8.778488 27.725297 -0.873112 5.571168 -4.697919 9.380000 -17.046200 -57.395400 -3.064004 -3.967051 3.244921 22.722235 4.936243 -6.145475 -0.126104 -2.085913 10.065855 0.299460 -5.555092 -13.280203 -0.327700 3.679200 -10.175800 2.498986 -1.549815 15.912179 1.160243 -1.879703 38.579741 -3.173043 -0.367875 -18.385113 -0.007328 -1.968903 -30.387916 3.007184 -2.406086 22.130965 0.157000 -0.677100 9.888300 5.822021 -4.630675 -1.059416 -101.678207 -25.538139 94.541091 152.526980 -35.116833 -109.746284 -2.235436 2.051561 -12.690350 48.184998 -48.605144 -42.338100 -7.125000 0.000000 0.000000 2.274900 -31.670000 -3.131900 -9.339650 6.139763 -1.071908 96.136690 16.607861 87.276708 -157.995204 25.121164 -113.896225 5.092496 1.859235 6.107307 -39.873141 -20.906355 20.690400 7.125000 0.000000 0.000000 -18.795100 -59.122600 6.631400 
-1.715385 18.433845 5.046503 -2.282909 -0.436099 5.531562 1.982900 4.111363 3.956753 -7.922614 -10.778251 -18.725212 1.950591 8.808523 27.864939 -0.818831 5.309455 -4.686340 9.364700 -17.036800 -57.343000 -3.002100 -3.985157 3.274472 22.883408 4.890715 -6.178702 -0.137986 -2.148981 10.213984 0.271469 -5.452989 -13.385170 -0.332100 3.703800 -10.244900 2.135690 -1.446149 16.627672 2.062592 -2.040553 38.193756 -3.012625 -0.284814 -19.257819 -0.195011 -2.003328 -30.375928 2.819195 -2.334987 22.709196 0.159700 -0.666100 9.975400 5.719561 -4.588642 -1.062541 -101.954348 -24.749355 94.707196 152.613355 -35.070006 -109.782255 -2.248870 2.054424 -12.947831 48.323850 -48.774673 -42.551900 -7.125000 0.000000 0.000000 2.239400 -31.887400 -3.085700 -9.461032 6.261474 -0.985731 95.989906 15.932083 87.456063 -158.087924 25.033612 -113.924795 5.105000 1.900892 6.120512 -40.038843 -21.084939 20.978000 7.125000 0.000000 0.000000 -19.075000 -59.433600 6.877700 
-1.710677 18.413836 5.040226 -2.398474 -0.382122 5.459168 1.970295 4.116146 3.958898 -7.776409 -10.734964 -18.832751 1.990389 8.887132 28.086413 -0.750457 5.026115 -4.815785 9.335900 -17.019100 -57.244800 -3.017627 -3.961388 3.259244 23.012398 4.934937 -6.407868 -0.195159 -2.359708 10.811137 0.196688 -5.144329 -13.610094 -0.332100 3.703600 -10.244100 2.512017 -1.506287 16.044302 1.855482 -2.004766 38.598327 -3.241753 -0.342632 -18.364541 -0.109972 -1.973930 -30.268708 3.130424 -2.394214 21.982434 0.202600 -0.664000 9.836400 5.764351 -4.611120 -1.064522 -101.602385 -25.361710 94.707644 152.640036 -35.007601 -109.808924 -2.261227 2.046496 -13.333032 48.440707 -49.010717 -42.762100 -7.125000 0.000000 0.000000 2.162600 -32.140500 -2.982900 -9.430756 6.168062 -1.066995 96.262894 16.583069 87.490631 -158.059149 25.062258 -113.912044 5.113136 1.945781 5.978006 -40.218933 -21.396689 21.365200 7.125000 0.000000 0.000000 -19.405000 -59.882100 7.211500 
